<?xml version="1.0" standalone="no"?>
<!DOCTYPE svg PUBLIC "-//W3C//DTD SVG 20010904//EN"
 "http://www.w3.org/TR/2001/REC-SVG-20010904/DTD/svg10.dtd">
<svg version="1.0" xmlns="http://www.w3.org/2000/svg"
 width="700.000000pt" height="700.000000pt" viewBox="0 0 700.000000 700.000000"
 preserveAspectRatio="xMidYMid meet">
<metadata>
Created by potrace 1.14, written by Peter Selinger 2001-2017
</metadata>
<g transform="translate(0.000000,700.000000) scale(0.100000,-0.100000)"
fill="#000000" stroke="none">
<path d="M2427 5833 c-1 0 -36 -4 -77 -7 -232 -17 -462 -146 -611 -342 -59
-78 -106 -172 -179 -359 -28 -71 -55 -139 -60 -150 -30 -68 -140 -353 -140
-365 0 -8 -71 56 -158 142 -182 181 -215 202 -327 202 -167 1 -288 -122 -287
-290 0 -109 22 -144 195 -318 l149 -149 -31 -24 c-111 -87 -216 -236 -265
-379 -51 -146 -52 -171 -51 -900 1 -373 5 -688 8 -699 3 -11 10 -42 16 -69 57
-246 226 -456 466 -576 l91 -46 1 -194 c1 -210 9 -252 58 -317 130 -170 386
-150 490 38 30 54 30 55 33 240 l4 187 1748 0 1748 0 4 -187 c3 -185 3 -186
33 -240 74 -133 233 -190 370 -131 85 37 155 120 171 205 4 21 7 121 8 224 l1
186 25 4 c14 1 36 11 50 21 14 10 30 18 35 18 19 2 134 82 190 134 50 45 145
158 145 172 0 2 13 26 30 53 35 58 88 216 98 293 8 68 8 1347 0 1410 -28 208
-142 414 -306 552 l-31 26 142 144 c158 159 169 173 190 245 40 134 -24 278
-152 340 -45 22 -69 27 -126 27 -110 0 -144 -21 -317 -191 -82 -82 -154 -148
-159 -148 -6 0 -30 52 -55 115 -24 63 -49 124 -54 135 -5 11 -52 124 -103 252
-52 127 -106 251 -120 275 -139 237 -375 396 -647 434 -36 6 -2238 13 -2243 7z
m2230 -601 c31 -11 67 -36 103 -73 54 -55 69 -83 140 -269 9 -25 52 -129 94
-233 42 -103 85 -209 95 -235 l19 -47 -1608 0 -1607 0 12 35 c22 61 166 424
181 454 8 16 14 33 14 37 0 5 11 33 25 63 14 30 25 58 25 61 0 3 9 27 21 52
35 77 115 144 194 164 17 4 528 7 1137 8 1025 1 1110 -1 1155 -17z m966 -1453
c54 -13 130 -69 160 -117 51 -80 51 -74 50 -754 l0 -637 -32 -65 c-38 -75 -89
-120 -164 -146 -49 -17 -158 -18 -2152 -16 l-2100 1 -49 24 c-85 42 -148 123
-162 208 -9 53 -11 1207 -2 1267 16 110 97 205 199 235 49 14 4197 14 4252 0z"/>
<path d="M1980 3203 c-144 -48 -230 -157 -230 -289 0 -87 57 -193 129 -239
171 -108 395 -24 445 166 36 141 -31 284 -163 342 -43 19 -149 31 -181 20z"/>
<path d="M4893 3201 c-83 -21 -156 -78 -195 -154 -31 -60 -35 -180 -7 -245 84
-196 345 -235 492 -73 67 75 87 220 42 314 -24 50 -89 114 -142 138 -49 22
-141 32 -190 20z"/>
</g>
</svg>
